<?xml version="1.0" encoding="utf-8"?>
<!-- Generator: Adobe Illustrator 16.0.4, SVG Export Plug-In . SVG Version: 6.00 Build 0)  -->
<!DOCTYPE svg PUBLIC "-//W3C//DTD SVG 1.1//EN" "http://www.w3.org/Graphics/SVG/1.1/DTD/svg11.dtd">
<svg version="1.1" id="Layer_1" xmlns="http://www.w3.org/2000/svg" xmlns:xlink="http://www.w3.org/1999/xlink" x="0px" y="0px"
	 width="720px" height="720px" viewBox="0 0 720 720" enable-background="new 0 0 720 720" xml:space="preserve">
<path fill="#002C52" d="M66,498v53.034c57.91,88.941,155.081,149.977,266.939,158.516l84.32-3.626
	c99.095-16.279,184.192-74.111,236.818-155.009L657,510c0,0-48-102-238-12S66,498,66,498z"/>
<g>
	<path fill="#002C52" d="M360,39.421c43.291,0,85.271,8.472,124.774,25.18c38.171,16.145,72.458,39.264,101.909,68.715
		s52.57,63.738,68.715,101.909c16.709,39.503,25.181,81.484,25.181,124.775s-8.472,85.271-25.181,124.774
		c-16.145,38.171-39.264,72.458-68.715,101.909s-63.738,52.57-101.909,68.715c-39.503,16.709-81.483,25.181-124.774,25.181
		s-85.271-8.472-124.775-25.181c-38.17-16.145-72.458-39.264-101.909-68.715s-52.57-63.738-68.715-101.909
		C47.893,445.271,39.421,403.291,39.421,360s8.472-85.271,25.18-124.775c16.145-38.17,39.264-72.458,68.715-101.909
		s63.738-52.57,101.909-68.715C274.729,47.893,316.709,39.421,360,39.421 M360,9.421C166.38,9.421,9.421,166.38,9.421,360
		C9.421,553.619,166.38,710.579,360,710.579c193.619,0,350.579-156.96,350.579-350.579C710.579,166.38,553.619,9.421,360,9.421
		L360,9.421z"/>
	<path fill="#FFFFFF" d="M360,69.421c77.616,0,150.587,30.226,205.471,85.109c54.883,54.882,85.108,127.854,85.108,205.47
		c0,77.616-30.226,150.587-85.108,205.471C510.587,620.354,437.616,650.579,360,650.579c-77.617,0-150.588-30.226-205.47-85.108
		C99.646,510.587,69.421,437.616,69.421,360s30.226-150.587,85.109-205.47C209.413,99.646,282.384,69.421,360,69.421 M360,39.421
		c-85.63,0-166.134,33.346-226.684,93.896S39.421,274.37,39.421,360s33.346,166.134,93.896,226.684S274.37,680.579,360,680.579
		s166.134-33.346,226.684-93.896S680.579,445.63,680.579,360s-33.346-166.134-93.896-226.684S445.63,39.421,360,39.421L360,39.421z"
		/>
</g>
<path fill="#002C52" d="M360.214,128.102c0,0-179.21,332.789,1.21,332.789S360.214,128.102,360.214,128.102z"/>
<path fill="none" stroke="#FFFFFF" stroke-width="20" stroke-linecap="round" stroke-miterlimit="10" d="M324,299
	c0,0-25.804,94.153,18.204,122"/>
</svg>
